<!DOCTYPE svg PUBLIC "-//W3C//DTD SVG 1.1//EN" "http://www.w3.org/Graphics/SVG/1.1/DTD/svg11.dtd">
<!-- Uploaded to: SVG Repo, www.svgrepo.com, Transformed by: SVG Repo Mixer Tools -->
<svg fill="#22c55e" height="800px" width="800px" version="1.1" id="Layer_1" xmlns="http://www.w3.org/2000/svg" xmlns:xlink="http://www.w3.org/1999/xlink" viewBox="0 0 512 512" xml:space="preserve">
<g id="SVGRepo_bgCarrier" stroke-width="0"/>
<g id="SVGRepo_tracerCarrier" stroke-linecap="round" stroke-linejoin="round"/>
<g id="SVGRepo_iconCarrier"> <g transform="translate(1 1)"> <g> <g> <path d="M186.733,400.067H75.8c-14.507,0-25.6-11.093-25.6-25.6s11.093-25.6,25.6-25.6h196.267c5.12,0,8.533-3.413,8.533-8.533 s-3.413-8.533-8.533-8.533H75.8c-23.893,0-42.667,18.773-42.667,42.667s18.773,42.667,42.667,42.667h110.933 c5.12,0,8.533-3.413,8.533-8.533C195.267,403.48,191.853,400.067,186.733,400.067z"/> <path d="M306.2,400.067h-76.8c-5.12,0-8.533,3.413-8.533,8.533c0,5.12,3.413,8.533,8.533,8.533h76.8 c5.12,0,8.533-3.413,8.533-8.533C314.733,403.48,311.32,400.067,306.2,400.067z"/> <path d="M84.333,365.933c-5.12,0-8.533,3.413-8.533,8.533S79.213,383,84.333,383h51.2c5.12,0,8.533-3.413,8.533-8.533 s-3.413-8.533-8.533-8.533H84.333z"/> <path d="M348.867,255H186.733c-5.12,0-8.533,3.413-8.533,8.533s3.413,8.533,8.533,8.533h162.133c5.12,0,8.533-3.413,8.533-8.533 S353.987,255,348.867,255z"/> <path d="M306.2,92.867H203.8c-5.12,0-8.533,3.413-8.533,8.533c0,5.12,3.413,8.533,8.533,8.533h102.4 c5.12,0,8.533-3.413,8.533-8.533C314.733,96.28,311.32,92.867,306.2,92.867z"/> <path d="M425.667,169.667H186.733c-5.12,0-8.533,3.413-8.533,8.533s3.413,8.533,8.533,8.533h238.933 c5.12,0,8.533-3.413,8.533-8.533S430.787,169.667,425.667,169.667z"/> <path d="M502.467,434.2h-11.687c-2.863-5.525-5.322-11.233-7.375-17.067h1.995c5.12,0,8.533-3.413,8.533-8.533 c0-5.12-3.413-8.533-8.533-8.533h-6.744c-1.162-5.638-1.954-11.341-2.346-17.067h9.943c4.267,0,8.533-3.413,8.533-8.533 s-3.413-8.533-8.533-8.533h-9.943c0.393-5.726,1.184-11.429,2.346-17.067h6.744c5.12,0,8.533-3.413,8.533-8.533 s-3.413-8.533-8.533-8.533h-1.995c2.053-5.834,4.512-11.542,7.375-17.067h11.687c5.12,0,8.533-3.413,8.533-8.533 s-3.413-8.533-8.533-8.533h-8.533v-76.8c0-5.12-3.413-8.533-8.533-8.533h-17.067v-76.8c0-5.12-3.413-8.533-8.533-8.533h-8.533 V67.267c0-5.12-3.413-8.533-8.533-8.533h-51.2H357.4H144.067h-51.2H24.6c-5.12,0-8.533,3.413-8.533,8.533v68.267 c0,5.12,3.413,8.533,8.533,8.533h17.067v68.267H7.533c-5.12,0-8.533,3.413-8.533,8.533V306.2c0,5.12,3.413,8.533,8.533,8.533 H27.34C10.015,328.771-1,350.238-1,374.467c0,42.667,34.133,76.8,76.8,76.8h349.867H485.4h17.067c5.12,0,8.533-3.413,8.533-8.533 S507.587,434.2,502.467,434.2z M476.867,297.667h-34.133V229.4H459.8h17.067V297.667z M408.6,297.667V229.4h17.067v68.267H408.6z M135.533,297.667V229.4h256v68.267H135.533z M84.333,229.4H101.4h17.067v68.267H84.333V229.4z M109.933,144.067H127v68.267 h-17.067V144.067z M152.6,127V75.8h196.267V127H152.6z M434.2,212.333h-34.133h-256v-68.267H357.4h34.133h51.2h8.533v68.267 H434.2z M434.2,127h-34.133V75.8H434.2V127z M383,75.8V127h-17.067V75.8H383z M135.533,75.8V127H101.4V75.8H135.533z M33.133,75.8h51.2V127H50.2H33.133V75.8z M58.733,144.067h34.133v68.267H75.8H58.733V144.067z M16.067,229.4H50.2h17.067v68.267 h-51.2V229.4z M425.667,434.2H75.8c-33.28,0-59.733-26.453-59.733-59.733S42.52,314.733,75.8,314.733H127h273.067h25.6h8.533 h37.547c-2.524,5.553-4.665,11.259-6.443,17.067H306.2c-5.12,0-8.533,3.413-8.533,8.533c0,5.12,3.413,8.533,8.533,8.533h155.002 c-1,5.646-1.667,11.346-1.999,17.067H426.52c-0.145,0-0.284,0.013-0.427,0.018c-0.143-0.005-0.281-0.018-0.427-0.018H178.2 c-5.12,0-8.533,3.413-8.533,8.533S173.08,383,178.2,383h247.467c0.145,0,0.284-0.013,0.427-0.018 c0.143,0.005,0.281,0.018,0.427,0.018h32.683c0.332,5.72,0.999,11.421,1.999,17.067H348.867c-5.12,0-8.533,3.413-8.533,8.533 c0,5.12,3.413,8.533,8.533,8.533h116.437c1.778,5.808,3.919,11.513,6.443,17.067H425.667z"/> </g> </g> </g> </g>
</svg>