<svg width="24" height="24" viewBox="0 0 24 24" fill="none" xmlns="http://www.w3.org/2000/svg">
<path d="M18.7626 7.99091C19.1883 7.56818 19.4517 6.98364 19.4517 6.33818C19.4517 5.69273 19.1883 5.10818 18.7626 4.68545C18.5473 4.46907 18.2888 4.29681 18.0027 4.17903C17.7166 4.06124 17.4087 4.00034 17.0975 4C17.0975 4 15.9232 3.99727 14.7433 5.16909C13.5634 3.99727 12.3891 4 12.3891 4C12.078 4.00038 11.7702 4.0612 11.4841 4.17883C11.198 4.29645 10.9394 4.46845 10.724 4.68455C10.2982 5.10818 10.0349 5.69182 10.0349 6.33727C10.0349 6.98273 10.2982 7.56818 10.724 7.99L13.3565 10.7355C14.1039 11.515 15.3828 11.5151 16.1303 10.7356L18.7626 7.99091Z" fill="#ffffff"/>
<path d="M18.7324 13.1091L15.7323 15.4199C15.3976 15.6777 14.9818 15.8182 14.5532 15.8182H10.9675C10.7068 15.8182 10.4955 15.6147 10.4955 15.3636C10.4955 15.1126 10.7068 14.9091 10.9675 14.9091H14.3327C14.418 14.909 14.5018 14.8867 14.575 14.8444C14.6483 14.8022 14.7082 14.7416 14.7485 14.6691C14.7888 14.5966 14.8079 14.515 14.8039 14.4328C14.7998 14.3507 14.7726 14.2712 14.7254 14.2027L13.8871 12.9918C13.7152 12.7426 13.4818 12.5381 13.2079 12.3968C12.934 12.2555 12.6281 12.1816 12.3173 12.1818H7.19171C6.94136 12.1818 6.70126 12.2776 6.52424 12.4481C6.49953 12.4719 6.46253 12.5104 6.41459 12.5604C6.11912 12.8682 5.40803 13.6089 4.59585 14L2 14V18.5455H4.12388C5.30382 18.5455 6.36569 18.659 6.71974 19C7.07378 19.341 7.63496 19.4545 8.13566 19.4545H14.8745C15.2781 19.4546 15.6771 19.3716 16.0447 19.2111C16.4123 19.0505 16.7401 18.8161 17.0059 18.5236L21.7346 14.0644C22.2062 13.6196 22.0224 12.8519 21.3962 12.6509C20.9478 12.507 20.4691 12.4735 20.0038 12.5535C19.5385 12.6335 19.1014 12.8245 18.7324 13.1091Z" fill="#ffffff"/>
</svg>
